<?xml version="1.0" encoding="utf-8"?>
<!-- Generator: Adobe Illustrator 27.4.0, SVG Export Plug-In . SVG Version: 6.00 Build 0)  -->
<svg version="1.1" id="Layer_1" xmlns="http://www.w3.org/2000/svg" xmlns:xlink="http://www.w3.org/1999/xlink" x="0px" y="0px"
	 viewBox="0 0 595.3 1125" style="enable-background:new 0 0 595.3 1125;" xml:space="preserve">
<style type="text/css">
	.st0{fill:#FF851B;}
	.st1{fill:#FFAA00;}
</style>
<path class="st0" d="M595.9,635.1c-0.6,0.5-1.3,0.7-1.7,1.1c-11.3,11.3-22.6,22.5-33.8,33.9c-0.8,0.8-1.3,2.4-1.3,3.6
	c-0.1,15.9,0,31.7-0.1,47.6c0,1.4-0.7,3.1-1.7,4c-32.3,32.4-64.6,64.7-97,97c-1,1-2.7,1.6-4.1,1.6c-15.8,0.1-31.5,0-47.3,0.1
	c-1.5,0-3.3,0.8-4.3,1.8c-11.2,11-22.2,22.1-33.4,33.1c-1,1-2.8,1.8-4.3,1.8c-45.8,0.1-91.7,0.1-137.5,0c-1.4,0-3-0.8-4-1.7
	c-11.2-11.1-22.3-22.3-33.6-33.3c-1-1-2.7-1.7-4-1.7c-15.9-0.1-31.7,0-47.6-0.1c-1.4,0-3.1-0.7-4-1.7c-32.4-32.3-64.7-64.6-97-97
	c-0.9-0.9-1.6-2.5-1.6-3.8c-0.1-16,0-31.9-0.1-47.9c0-1.1-0.4-2.6-1.2-3.4c-11.5-11.6-23.1-23.2-34.7-34.8c-0.2-0.2-0.5-0.3-0.9-0.3
	C0.6,587.4,0.6,539.4,0.6,491c0.6-0.5,1.3-0.7,1.7-1.1c11.3-11.3,22.6-22.5,33.8-33.9c0.8-0.8,1.3-2.4,1.3-3.6
	c0.1-15.9,0-31.7,0.1-47.6c0-1.4,0.7-3.1,1.7-4c32.3-32.4,64.6-64.7,97-97c1-1,2.7-1.6,4.1-1.6c15.8-0.1,31.5,0,47.3-0.1
	c1.5,0,3.3-0.8,4.3-1.8c11.2-11,22.2-22.1,33.4-33.1c1-1,2.8-1.8,4.3-1.8c45.8-0.1,91.7-0.1,137.5,0c1.4,0,3,0.8,4,1.7
	c11.2,11.1,22.3,22.3,33.6,33.3c1,1,2.7,1.7,4,1.7c15.9,0.1,31.7,0,47.6,0.1c1.4,0,3.1,0.7,4,1.7c32.4,32.3,64.7,64.6,97,97
	c0.9,0.9,1.6,2.5,1.6,3.8c0.1,16,0,31.9,0.1,47.9c0,1.1,0.4,2.6,1.2,3.4c11.5,11.6,23.1,23.2,34.7,34.8c0.2,0.2,0.5,0.3,0.9,0.3
	C595.9,538.8,595.9,586.8,595.9,635.1 M9.6,630.4c9.2,9.1,18.3,18.3,27.7,27.7c0-63.5,0-126.6,0-189.1c-9.2,8.9-18.5,18-28.1,27.6
	c-0.1,0.9-0.2,1.8-0.2,2.6c0,42.6,0,85.1,0,127.7C9,627.9,9.3,629,9.6,630.4 M521.5,695.8c8.9-8.9,17.9-17.8,26.7-26.8
	c1-1,1.8-2.8,1.8-4.3c0.1-67.8,0.1-135.5,0.1-203.3c0-1.8-0.5-3.1-1.8-4.4c-48.2-48.1-96.3-96.2-144.4-144.3c-1-1-2.8-1.8-4.3-1.8
	c-67.6-0.1-135.1-0.1-202.7,0c-1.5,0-3.3,0.8-4.3,1.8C144.4,360.9,96.3,409,48.3,457.2c-1,1-1.8,2.8-1.8,4.3
	c-0.1,67.8-0.1,135.5,0,203.3c0,1.4,0.8,3.3,1.8,4.3c48.1,48.2,96.2,96.3,144.3,144.4c1.3,1.3,2.6,1.8,4.4,1.8
	c67.5,0,134.9,0,202.4,0c2.1,0,3.4-0.6,4.9-2.1C443.2,774.1,482.2,735.1,521.5,695.8 M587.5,506c0-2.1-0.2-4.2,0-6.2
	c0.2-2.4-0.6-4-2.3-5.7c-4.9-4.6-9.6-9.5-14.3-14.3c-3.8-3.8-7.6-7.6-11.8-11.8c0,63.6,0,126.6,0,189.7c0.2,0.2,0.5,0.4,0.7,0.5
	c0.5-0.7,0.8-1.6,1.5-2.2c8.1-8.2,16.2-16.3,24.4-24.4c1.4-1.4,1.9-2.7,1.9-4.7C587.5,586.9,587.5,546.7,587.5,506 M228,277.3
	c-8.1,8.1-16.2,16.2-24.6,24.5c63.4,0,126.3,0,189.6,0c-8.9-8.9-17.4-17.3-25.9-25.9c-1.4-1.4-2.7-1.9-4.7-1.9
	c-42.3,0-84.7,0.1-127,0C232.4,274,230.1,274.5,228,277.3 M370,847.3c7.6-7.6,15.2-15.2,23-23c-63.4,0-126.2,0-189.5,0
	c8.7,8.7,17.2,17.1,25.5,25.5c1.6,1.6,3.1,2.3,5.4,2.3c41.5-0.1,83.1-0.1,124.6,0.1C363.5,852.2,367,851.4,370,847.3 M85.7,367.3
	c-12.5,12.5-25,24.9-37.4,37.5c-1,1-1.8,2.8-1.8,4.3c-0.1,11.1-0.1,22.2-0.1,33.3c0,0.9,0,1.9,0,2.7
	c44.7-44.7,89.4-89.4,134.1-134.1c-0.8,0-1.8,0-2.7,0c-11,0-22,0-33,0c-1.9,0-3.3,0.5-4.6,1.9C122.1,330.9,104.1,348.9,85.7,367.3
	 M503,398.8c15.5,15.5,31,31,47,47c0-12.8,0.1-24.9-0.1-36.9c0-1.4-0.7-3-1.7-4c-30.7-30.8-61.4-61.5-92.2-92.2
	c-1-1-2.7-1.6-4.1-1.6c-11.2-0.1-22.4-0.1-33.6-0.1c-0.8,0-1.7,0-3.2,0C444.7,340.5,473.7,369.5,503,398.8 M46.4,693.5
	c0,7.9-0.1,15.9,0.1,23.8c0,1.4,0.7,3.1,1.7,4c30.6,30.8,61.4,61.5,92.1,92.1c1,1,2.7,1.7,4,1.7c11.3,0.1,22.6,0.1,33.9,0.1
	c0.8,0,1.6-0.1,1.9-0.1C135.6,770.5,91,725.9,46.4,681.3C46.4,685,46.4,688.9,46.4,693.5 M455.2,814.5c31-31,62-62,92.9-93.1
	c1-1,1.8-2.8,1.8-4.3c0.2-9.8,0.1-19.6,0.1-29.5c0-2.2,0-4.5,0-6.5c-44.7,44.7-89.4,89.4-134,134c0.2,0,0.6,0.1,0.9,0.1
	c12.1,0,24.2,0,36.3,0C453.8,815.2,454.3,814.9,455.2,814.5z"/>
<path class="st1" d="M9.3,496.4c0.2,0.4,0.2,1,0.2,1.6c0,43.9,0,87.7-0.1,131.9C9.3,629,9,627.9,9,626.9c0-42.6,0-85.1,0-127.7
	C8.9,498.3,9.1,497.4,9.3,496.4z"/>
<path class="st0" d="M120.7,482.3c5.9-5.5,12.8-8.8,20.4-10.5c10.4-2.3,20.8-1.7,30.8,1.9c9.7,3.5,17.2,10.1,22.6,18.6
	c4.9,7.6,7.3,16.1,7.3,25.4c0.1,30.6,0.4,61.2,0.5,91.8c0,9.4,4.6,15.9,12.2,20.5c9.5,5.8,19.6,3.7,27.1-3.5
	c4.6-4.4,7.2-10.1,7.2-16.7c0-29.4,0.1-58.7,0-88.1c0-12.1,2.8-23.4,10.3-33c6.9-8.9,15.9-14.8,27.1-17.1c9-1.9,18.1-1.6,26.9,0.9
	c11.2,3.2,19.9,10,26.1,19.7c4.6,7.3,7.2,15.4,7.3,24.2c0.2,44.6,0.4,89.2,0.6,133.8c0,0.7,0,1.4,0,2.2c-8.4,0-16.5,0-25,0
	c0-1.2,0-2.4,0-3.5c0-43,0-85.9,0-128.9c0-8.4-2-16.1-8.9-22c-7-6-18.4-7.5-26.8-2.3c-8.7,5.4-12.5,13.2-12.5,23.2
	c0.1,30.2,0.4,60.3-0.1,90.5c-0.3,17.1-8.2,30.5-23,39.6c-8.8,5.4-18.5,7.4-28.6,6.5c-21.7-2-36.4-13.4-42.9-34.4
	c-1.2-3.8-1.8-7.8-1.8-11.8c-0.1-30.6-0.1-61.1-0.1-91.7c0-11.4-7.2-20.9-17.7-24.1c-9.4-2.9-19.8,0.8-25.4,8.9
	c-3.2,4.6-4.6,9.4-4.6,15c0.1,43.7,0.1,87.5,0.1,131.2c0,1.2,0,2.4,0,3.8c-8.3,0-16.4,0-25,0c0-1.1,0-2.2,0-3.4
	c0-44.1-0.1-88.3,0.1-132.4c0-12.1,4.4-22.8,13-31.5C118.7,484.2,119.6,483.3,120.7,482.3z"/>
<path class="st0" d="M442.3,578.3c-12,0-23.7,0-35.6,0c0,24.8,0,49.4,0,74.2c-8.5,0-16.6,0-25.1,0c0-1.1,0-2,0-3
	c0-43.7-0.1-87.5,0.1-131.2c0-10.6,3.6-20,10.4-28.3c7.3-8.8,16.7-13.6,27.6-15.8c2.3-0.5,4.7-0.6,7-0.6c21.1,0,42.2,0,63.4,0
	c0.4,0,0.8,0,1.4,0.1c0,7.4,0,14.8,0,22.5c-1,0-2.1,0-3.1,0c-19.4,0-38.9,0.1-58.3,0c-11.7-0.1-21.8,8.3-22.9,20
	c-0.3,2.8-0.6,5.7-0.6,8.5c-0.1,10.3,0,20.6,0,30.9c0,0.2,0.1,0.3,0.3,0.7c25.1,0,50.2,0,75.6,0c0,7.4,0,14.5,0,22.1
	C469.3,578.3,455.9,578.3,442.3,578.3z"/>
</svg>
